<svg width="1200" height="280" viewBox="0 0 1200 280" xmlns="http://www.w3.org/2000/svg">

  <!-- Background -->
  <rect width="1200" height="280" fill="#000000"/>

  <!-- Icon -->
  <g transform="translate(80, 90)">
    <circle cx="40" cy="40" r="32" fill="none" stroke="#ffffff" stroke-width="3"/>
    <line x1="65" y1="65" x2="86" y2="86" stroke="#ffffff" stroke-width="4" stroke-linecap="round"/>
    <line x1="26" y1="34" x2="54" y2="34" stroke="#ffffff" stroke-width="2.5" stroke-linecap="round" opacity="0.45"/>
    <line x1="26" y1="42" x2="48" y2="42" stroke="#ffffff" stroke-width="2.5" stroke-linecap="round" opacity="0.45"/>
    <line x1="26" y1="50" x2="52" y2="50" stroke="#ffffff" stroke-width="2.5" stroke-linecap="round" opacity="0.45"/>
  </g>

  <!-- Title -->
  <text x="200" y="138"
        font-family="-apple-system, BlinkMacSystemFont, 'Segoe UI', sans-serif"
        font-size="58" font-weight="700" letter-spacing="-2" fill="#ffffff">
    PR Review Kit
  </text>

  <!-- Tagline -->
  <text x="200" y="176"
        font-family="-apple-system, BlinkMacSystemFont, 'Segoe UI', sans-serif"
        font-size="17" font-weight="400" fill="#555555" letter-spacing="0.2">
    What if your AI actually understood your codebase before reviewing?
  </text>

  <!-- Pills -->
  <g transform="translate(200, 204)">
    <rect width="130" height="28" rx="14" fill="none" stroke="#ffffff" stroke-width="1.2"/>
    <text x="65" y="19" text-anchor="middle" font-family="monospace" font-size="11" fill="#ffffff">Stack-aware</text>

    <rect x="142" width="120" height="28" rx="14" fill="none" stroke="#333333" stroke-width="1.2"/>
    <text x="202" y="19" text-anchor="middle" font-family="monospace" font-size="11" fill="#555555">Context-first</text>

    <rect x="274" width="136" height="28" rx="14" fill="none" stroke="#333333" stroke-width="1.2"/>
    <text x="342" y="19" text-anchor="middle" font-family="monospace" font-size="11" fill="#555555">Any AI tool</text>
  </g>

  <!-- Command block -->
  <rect x="820" y="104" width="280" height="52" rx="4" fill="#0d0d0d"/>
  <text x="840" y="126" font-family="monospace" font-size="11" fill="#444444">$ npx prr-kit init</text>
  <line x1="840" y1="134" x2="1084" y2="134" stroke="#222222" stroke-width="1"/>
  <text x="840" y="148" font-family="monospace" font-size="11" fill="#777777">/prr-quick</text>

</svg>
