<svg width="1200" height="240" viewBox="0 0 1200 240" xmlns="http://www.w3.org/2000/svg">

  <!-- Background -->
  <rect width="1200" height="240" fill="#000000"/>

  <!-- Title -->
  <text x="600" y="38" text-anchor="middle"
        font-family="-apple-system, BlinkMacSystemFont, 'Segoe UI', sans-serif"
        font-size="18" font-weight="700" fill="#ffffff" letter-spacing="-0.3">How It Works</text>

  <!-- ══════════ PIPELINE ══════════ -->

  <!-- 01 Select PR -->
  <g transform="translate(40, 62)">
    <rect width="130" height="76" rx="5" fill="#0d0d0d"/>
    <text x="65" y="22" text-anchor="middle" font-family="monospace" font-size="8" fill="#333333" letter-spacing="2">01</text>
    <text x="65" y="48" text-anchor="middle" font-family="monospace" font-size="22" fill="#ffffff" font-weight="700">SP</text>
    <text x="65" y="66" text-anchor="middle" font-family="-apple-system, 'Segoe UI', sans-serif" font-size="11" fill="#555555">Select PR</text>
  </g>

  <line x1="170" y1="100" x2="196" y2="100" stroke="#2a2a2a" stroke-width="1.5"/>
  <polygon points="196,96 204,100 196,104" fill="#2a2a2a"/>

  <!-- 02 Describe PR -->
  <g transform="translate(204, 62)">
    <rect width="130" height="76" rx="5" fill="#0d0d0d"/>
    <text x="65" y="22" text-anchor="middle" font-family="monospace" font-size="8" fill="#333333" letter-spacing="2">02</text>
    <text x="65" y="48" text-anchor="middle" font-family="monospace" font-size="22" fill="#ffffff" font-weight="700">DP</text>
    <text x="65" y="66" text-anchor="middle" font-family="-apple-system, 'Segoe UI', sans-serif" font-size="11" fill="#555555">Describe PR</text>
  </g>

  <!-- dashed arrow = auto -->
  <line x1="334" y1="100" x2="354" y2="100" stroke="#2a2a2a" stroke-width="1.5" stroke-dasharray="4,3"/>
  <polygon points="354,96 362,100 354,104" fill="#2a2a2a"/>
  <text x="348" y="92" text-anchor="middle" font-family="monospace" font-size="8" fill="#333333">auto</text>

  <!-- 03 Collect Context (highlighted) -->
  <g transform="translate(362, 50)">
    <rect width="186" height="100" rx="5" fill="#0d0d0d" stroke="#ffffff" stroke-width="1.2"/>
    <text x="12" y="20" font-family="monospace" font-size="8" fill="#333333" letter-spacing="1">03</text>
    <text x="93" y="52" text-anchor="middle" font-family="monospace" font-size="15" fill="#ffffff" font-weight="700">Collect Context</text>
    <text x="93" y="72" text-anchor="middle" font-family="monospace" font-size="9" fill="#444444">Reads your actual project config</text>
    <text x="93" y="88" text-anchor="middle" font-family="monospace" font-size="9" fill="#333333">→ pr-context.yaml</text>
  </g>

  <line x1="548" y1="100" x2="568" y2="100" stroke="#2a2a2a" stroke-width="1.5"/>
  <polygon points="568,96 576,100 568,104" fill="#2a2a2a"/>

  <!-- 04 Deep Review (mystery) -->
  <g transform="translate(576, 50)">
    <rect width="222" height="100" rx="5" fill="#0d0d0d"/>
    <text x="12" y="20" font-family="monospace" font-size="8" fill="#333333" letter-spacing="1">04</text>
    <text x="111" y="52" text-anchor="middle" font-family="-apple-system, 'Segoe UI', sans-serif" font-size="13" fill="#cccccc" font-weight="600">Deep Review</text>
    <text x="111" y="72" text-anchor="middle" font-family="monospace" font-size="9" fill="#444444">Security · Perf · Arch · Bugs</text>
    <text x="111" y="88" text-anchor="middle" font-family="monospace" font-size="9" fill="#333333">structured findings per concern</text>
  </g>

  <line x1="798" y1="100" x2="818" y2="100" stroke="#2a2a2a" stroke-width="1.5"/>
  <polygon points="818,96 826,100 818,104" fill="#2a2a2a"/>

  <!-- 05 Report -->
  <g transform="translate(826, 62)">
    <rect width="130" height="76" rx="5" fill="#0d0d0d"/>
    <text x="65" y="22" text-anchor="middle" font-family="monospace" font-size="8" fill="#333333" letter-spacing="2">05</text>
    <text x="65" y="48" text-anchor="middle" font-family="monospace" font-size="22" fill="#ffffff" font-weight="700">RR</text>
    <text x="65" y="66" text-anchor="middle" font-family="-apple-system, 'Segoe UI', sans-serif" font-size="11" fill="#555555">Report</text>
  </g>

  <line x1="956" y1="100" x2="976" y2="100" stroke="#2a2a2a" stroke-width="1.5"/>
  <polygon points="976,96 984,100 976,104" fill="#2a2a2a"/>

  <!-- 06 Post Comments (optional, dimmed) -->
  <g transform="translate(984, 62)" opacity="0.4">
    <rect width="130" height="76" rx="5" fill="#0d0d0d"/>
    <text x="65" y="22" text-anchor="middle" font-family="monospace" font-size="8" fill="#333333" letter-spacing="2">06</text>
    <text x="65" y="48" text-anchor="middle" font-family="monospace" font-size="22" fill="#ffffff" font-weight="700">PC</text>
    <text x="65" y="66" text-anchor="middle" font-family="-apple-system, 'Segoe UI', sans-serif" font-size="11" fill="#555555">Post Comments</text>
  </g>
  <text x="1049" y="153" text-anchor="middle" font-family="monospace" font-size="8" fill="#333333">optional</text>

  <!-- ══════════ Quick mode ══════════ -->
  <rect x="40" y="178" width="400" height="30" rx="4" fill="#0d0d0d"/>
  <text x="56" y="198" font-family="monospace" font-size="10" fill="#555555">Quick mode: </text>
  <text x="136" y="198" font-family="monospace" font-size="10" fill="#ffffff">/prr-quick</text>
  <text x="208" y="198" font-family="monospace" font-size="10" fill="#333333"> — one command, full pipeline</text>

</svg>
